<?xml version="1.0" standalone="yes"?>
<svg xmlns="http://www.w3.org/2000/svg" width="819" height="460">
<path style="fill:#ffffff; stroke:none;" d="M0 0L0 460L819 460L819 0L0 0z"/>
<path style="fill:#5babed; stroke:none;" d="M269 182L270 183L269 182z"/>
<path style="fill:#020306; stroke:none;" d="M150 212L150 249L283 249L283 212L150 212z"/>
<path style="fill:#8d3506; stroke:none;" d="M155 217L156 244L157 244C157 236.55 159.595 223.065 155 217z"/>
<path style="fill:#ffffff; stroke:none;" d="M167 217L167 244L171 244C171 239.808 171.825 235.48 168 233L168 230C172.895 226.827 171.572 219.804 167 217z"/>
<path style="fill:#f9c579; stroke:none;" d="M168 217L169 218L168 217z"/>
<path style="fill:#5babed; stroke:none;" d="M179 217L181 219L179 217z"/>
<path style="fill:#ffffff; stroke:none;" d="M180 217C182.327 223.436 181.175 226.616 176 231C179.708 233.92 181.639 236.217 182 241L185 244C199.659 243.989 195 228.327 195 217L187 226L187 217L180 217z"/>
<path style="fill:#8d3506; stroke:none;" d="M187 217L187 226L188 226L187 217z"/>
<path style="fill:#5babed; stroke:none;" d="M193 217L194 218L193 217z"/>
<path style="fill:#8d3506; stroke:none;" d="M195 217L195 243L196 243L195 217z"/>
<path style="fill:#5babed; stroke:none;" d="M205 217L205 244L206 244L205 217z"/>
<path style="fill:#ffffff; stroke:none;" d="M206 217L206 244C220.713 244 220 239.647 220 226L221 226C222.303 231.698 221.276 242.832 228 244C225.402 236.016 223.298 218.934 214 217L214 226L206 217z"/>
<path style="fill:#8d3506; stroke:none;" d="M207 217L208 218L207 217z"/>
<path style="fill:#5babed; stroke:none;" d="M213 217L213 226L214 226L213 217z"/>
<path style="fill:#f9c579; stroke:none;" d="M217 217L218 218L217 217z"/>
<path style="fill:#5babed; stroke:none;" d="M230.333 217.667L230.667 218.333L230.333 217.667z"/>
<path style="fill:#ffffff; stroke:none;" d="M231 217L233 226L234 226L235 221L236 221L232 244L237 244L237 217L231 217z"/>
<path style="fill:#f9c579; stroke:none;" d="M237 217L237 244L238 244L237 217z"/>
<path style="fill:#5babed; stroke:none;" d="M249 217L248 244L249 244L249 217z"/>
<path style="fill:#ffffff; stroke:none;" d="M249 244L254 244L255 235L257 235C258.163 238.324 259.429 242.035 263.043 243.392C264.994 244.124 269.566 244.091 269.079 240.907C268.506 237.162 262.578 235.675 260.019 233.606C253.763 228.55 254.392 223.785 257 217C244.603 217.147 249 234.763 249 244z"/>
<path style="fill:#f9c579; stroke:none;" d="M257 217L258 218L257 217z"/>
<path style="fill:#5babed; stroke:none;" d="M264 217L263 219L264 217z"/>
<path style="fill:#ffffff; stroke:none;" d="M277 232L278 232L278 217L277 217L277 225C273.75 223.084 271.956 218.496 267.979 217.801C264.958 217.273 262.766 219.951 264.662 222.614C267.603 226.746 273.703 227.799 277 232z"/>
<path style="fill:#f9c579; stroke:none;" d="M268 217L269 218L268 217z"/>
<path style="fill:#8d3506; stroke:none;" d="M269 217L270 218L269 217z"/>
<path style="fill:#ffffff; stroke:none;" d="M155 218L155 244L156 244L155 218z"/>
<path style="fill:#f9c579; stroke:none;" d="M170 218L171 219L170 218z"/>
<path style="fill:#5babed; stroke:none;" d="M192 218L193 219L192 218z"/>
<path style="fill:#8d3506; stroke:none;" d="M208 218L209 219L208 218z"/>
<path style="fill:#f9c579; stroke:none;" d="M219 218L220 219L219 218M256 218L257 219L256 218M270 218L271 219L270 218z"/>
<path style="fill:#8d3506; stroke:none;" d="M271 218L272 219L271 218M171 219L171 229L172 229L171 219z"/>
<path style="fill:#5babed; stroke:none;" d="M191 219L192 220L191 219z"/>
<path style="fill:#8d3506; stroke:none;" d="M209 219L210 220L209 219M220.333 219.667L220.667 220.333L220.333 219.667M256 219L257 220L256 219M272 219L273 220L272 219z"/>
<path style="fill:#5babed; stroke:none;" d="M181 220L181 226L182 226L181 220z"/>
<path style="fill:#f9c579; stroke:none;" d="M209 220L210 221L209 220z"/>
<path style="fill:#5babed; stroke:none;" d="M231.333 220.667L231.667 221.333L231.333 220.667z"/>
<path style="fill:#f9c579; stroke:none;" d="M255 220L256 221L255 220M272 220L273 221L272 220z"/>
<path style="fill:#5babed; stroke:none;" d="M190.333 221.667L190.667 222.333L190.333 221.667z"/>
<path style="fill:#8d3506; stroke:none;" d="M210.333 221.667L210.667 222.333L210.333 221.667z"/>
<path style="fill:#f9c579; stroke:none;" d="M220 221L221 222L220 221M235.333 221.667L235.667 222.333L235.333 221.667z"/>
<path style="fill:#8d3506; stroke:none;" d="M255.333 221.667L255.667 222.333L255.333 221.667z"/>
<path style="fill:#f9c579; stroke:none;" d="M273 221L274 222L273 221z"/>
<path style="fill:#8d3506; stroke:none;" d="M221.333 222.667L221.667 223.333L221.333 222.667z"/>
<path style="fill:#5babed; stroke:none;" d="M263 222L264 223L263 222z"/>
<path style="fill:#8d3506; stroke:none;" d="M274.333 222.667L274.667 223.333L274.333 222.667z"/>
<path style="fill:#f9c579; stroke:none;" d="M210.333 223.667L210.667 224.333L210.333 223.667z"/>
<path style="fill:#5babed; stroke:none;" d="M232.333 223.667L232.667 224.333L232.333 223.667z"/>
<path style="fill:#8d3506; stroke:none;" d="M235 223L236 224L235 223z"/>
<path style="fill:#f9c579; stroke:none;" d="M254 223L254 227L255 227L254 223z"/>
<path style="fill:#5babed; stroke:none;" d="M264 223L265 224L264 223z"/>
<path style="fill:#f9c579; stroke:none;" d="M221 224L222 225L221 224M234.333 224.667L234.667 225.333L234.333 224.667z"/>
<path style="fill:#5babed; stroke:none;" d="M266 224L267 225L266 224z"/>
<path style="fill:#f9c579; stroke:none;" d="M274 224L275 225L274 224z"/>
<path style="fill:#5babed; stroke:none;" d="M189 225L190 226L189 225z"/>
<path style="fill:#8d3506; stroke:none;" d="M211 225L212 226L211 225M222.333 225.667L222.667 226.333L222.333 225.667z"/>
<path style="fill:#5babed; stroke:none;" d="M268 225L269 226L268 225z"/>
<path style="fill:#f9c579; stroke:none;" d="M220 226L221 227L220 226z"/>
<path style="fill:#5babed; stroke:none;" d="M233 226L234 227L233 226z"/>
<path style="fill:#8d3506; stroke:none;" d="M234 226L235 227L234 226z"/>
<path style="fill:#5babed; stroke:none;" d="M270 226L271 227L270 226M180 227L181 228L180 227z"/>
<path style="fill:#8d3506; stroke:none;" d="M220 227L220 242L221 242L220 227z"/>
<path style="fill:#f9c579; stroke:none;" d="M222 227L223 228L222 227z"/>
<path style="fill:#8d3506; stroke:none;" d="M255.333 227.667L255.667 228.333L255.333 227.667z"/>
<path style="fill:#5babed; stroke:none;" d="M272 227L273 228L272 227M179 228L180 229L179 228M221.333 228.667L221.667 229.333L221.333 228.667z"/>
<path style="fill:#8d3506; stroke:none;" d="M223.333 228.667L223.667 229.333L223.333 228.667z"/>
<path style="fill:#5babed; stroke:none;" d="M274 228L275 229L274 228z"/>
<path style="fill:#8d3506; stroke:none;" d="M170 229L171 230L170 229z"/>
<path style="fill:#5babed; stroke:none;" d="M178 229L179 230L178 229M235.333 229.667L235.667 230.333L235.333 229.667z"/>
<path style="fill:#f9c579; stroke:none;" d="M255 229L256 230L255 229z"/>
<path style="fill:#5babed; stroke:none;" d="M275 229L276 230L275 229z"/>
<path style="fill:#f9c579; stroke:none;" d="M168 230L168 233L169 233L168 230z"/>
<path style="fill:#5babed; stroke:none;" d="M175 230L177 232L175 230z"/>
<path style="fill:#f9c579; stroke:none;" d="M223 230L224 231L223 230z"/>
<path style="fill:#8d3506; stroke:none;" d="M256 230L257 231L256 230z"/>
<path style="fill:#5babed; stroke:none;" d="M276 230L277 231L276 230z"/>
<path style="fill:#8d3506; stroke:none;" d="M175 231L176 232L175 231z"/>
<path style="fill:#5babed; stroke:none;" d="M222 231L222 241L223 241L222 231z"/>
<path style="fill:#8d3506; stroke:none;" d="M224.333 231.667L224.667 232.333L224.333 231.667M257 231L258 232L257 231z"/>
<path style="fill:#5babed; stroke:none;" d="M178 232L179 233L178 232z"/>
<path style="fill:#8d3506; stroke:none;" d="M258 232L259 233L258 232z"/>
<path style="fill:#5babed; stroke:none;" d="M277.333 232.667L277.667 233.333L277.333 232.667z"/>
<path style="fill:#f9c579; stroke:none;" d="M170 233L171 234L170 233M224 233L225 234L224 233z"/>
<path style="fill:#5babed; stroke:none;" d="M234.333 233.667L234.667 234.333L234.333 233.667z"/>
<path style="fill:#8d3506; stroke:none;" d="M259 233L260 234L259 233M171 234L171 243L172 243L171 234M225.333 234.667L225.667 235.333L225.333 234.667z"/>
<path style="fill:#f9c579; stroke:none;" d="M260 234L261 235L260 234z"/>
<path style="fill:#8d3506; stroke:none;" d="M261 234L262 235L261 234z"/>
<path style="fill:#5babed; stroke:none;" d="M181 235L181 242L182 242L181 235z"/>
<path style="fill:#8d3506; stroke:none;" d="M255 235L256 236L255 235z"/>
<path style="fill:#f9c579; stroke:none;" d="M262 235L263 236L262 235z"/>
<path style="fill:#8d3506; stroke:none;" d="M263 235L264 236L263 235z"/>
<path style="fill:#f9c579; stroke:none;" d="M225 236L226 237L225 236z"/>
<path style="fill:#5babed; stroke:none;" d="M233.333 236.667L233.667 237.333L233.333 236.667z"/>
<path style="fill:#f9c579; stroke:none;" d="M254 236L254 244L255 244L254 236z"/>
<path style="fill:#5babed; stroke:none;" d="M257.333 236.667L257.667 237.333L257.333 236.667z"/>
<path style="fill:#f9c579; stroke:none;" d="M264 236L265 237L264 236z"/>
<path style="fill:#8d3506; stroke:none;" d="M265 236L266 237L265 236M226 237L227 238L226 237M267 237L268 238L267 237z"/>
<path style="fill:#f9c579; stroke:none;" d="M226.333 238.667L226.667 239.333L226.333 238.667M268 238L269 239L268 238z"/>
<path style="fill:#5babed; stroke:none;" d="M232 239L232 242L233 242L232 239M258 239L259 240L258 239z"/>
<path style="fill:#f9c579; stroke:none;" d="M269 239L270 240L269 239z"/>
<path style="fill:#8d3506; stroke:none;" d="M227 240L228 241L227 240M270 240L270 243L271 243L270 240z"/>
<path style="fill:#5babed; stroke:none;" d="M277 240L278 241L277 240z"/>
<path style="fill:#f9c579; stroke:none;" d="M182 241L183 242L182 241z"/>
<path style="fill:#5babed; stroke:none;" d="M184 241L185 242L184 241z"/>
<path style="fill:#f9c579; stroke:none;" d="M227.333 241.667L227.667 242.333L227.333 241.667z"/>
<path style="fill:#5babed; stroke:none;" d="M259 241L260 242L259 241z"/>
<path style="fill:#ffffff; stroke:none;" d="M277 241L276 244L277 241z"/>
<path style="fill:#f9c579; stroke:none;" d="M219 242L220 243L219 242z"/>
<path style="fill:#5babed; stroke:none;" d="M223 242L224 243L223 242M260 242L261 243L260 242M276 242L277 243L276 242z"/>
<path style="fill:#f9c579; stroke:none;" d="M171 243L172 244L171 243z"/>
<path style="fill:#5babed; stroke:none;" d="M184 243L185 244L184 243z"/>
<path style="fill:#f9c579; stroke:none;" d="M194 243L195 244L194 243z"/>
<path style="fill:#8d3506; stroke:none;" d="M219 243L220 244L219 243M228 243L229 244L228 243z"/>
<path style="fill:#5babed; stroke:none;" d="M231 243L232 244L231 243M261 243L262 244L261 243z"/>
<path style="fill:#8d3506; stroke:none;" d="M269 243L270 244L269 243z"/>
<path style="fill:#5babed; stroke:none;" d="M275 243L276 244L275 243z"/>
</svg>
